<svg width="33" height="33" viewBox="0 0 42 42" fill="none" xmlns="http://www.w3.org/2000/svg">
<rect width="42" height="42" rx="5" fill="white"/>
<rect width="32" height="32" transform="translate(5 5)" fill="white"/>
<path d="M20 7H22V12H20V7ZM26.688 13.9L30.194 10.394L31.608 11.808L28.102 15.314L26.688 13.9ZM30 20H35V22H30V20ZM26.688 28.1L28.102 26.687L31.608 30.193L30.194 31.607L26.688 28.1ZM20 30H22V35H20V30ZM10.394 30.192L13.9 26.686L15.314 28.1L11.809 31.606L10.394 30.192ZM7 20H12V22H7V20ZM10.395 11.808L11.809 10.394L15.315 13.9L13.9 15.314L10.395 11.808ZM21 17C21.7911 17 22.5645 17.2346 23.2223 17.6741C23.8801 18.1136 24.3928 18.7384 24.6955 19.4693C24.9983 20.2002 25.0775 21.0044 24.9231 21.7804C24.7688 22.5563 24.3878 23.269 23.8284 23.8284C23.269 24.3878 22.5563 24.7688 21.7804 24.9231C21.0044 25.0775 20.2002 24.9983 19.4693 24.6955C18.7384 24.3928 18.1136 23.8801 17.6741 23.2223C17.2346 22.5645 17 21.7911 17 21C17.0013 19.9395 17.4232 18.9229 18.173 18.173C18.9229 17.4232 19.9395 17.0013 21 17V17ZM21 15C19.8133 15 18.6533 15.3519 17.6666 16.0112C16.6799 16.6705 15.9108 17.6075 15.4567 18.7039C15.0026 19.8003 14.8838 21.0067 15.1153 22.1705C15.3468 23.3344 15.9182 24.4035 16.7574 25.2426C17.5965 26.0818 18.6656 26.6532 19.8295 26.8847C20.9933 27.1162 22.1997 26.9974 23.2961 26.5433C24.3925 26.0892 25.3295 25.3201 25.9888 24.3334C26.6481 23.3467 27 22.1867 27 21C27 19.4087 26.3679 17.8826 25.2426 16.7574C24.1174 15.6321 22.5913 15 21 15Z" fill="#FFCA10"/>
</svg>
